<?xml version="1.0" encoding="UTF-8" standalone="no"?>
<!-- Created with Inkscape (http://www.inkscape.org/) -->

<svg
   xmlns:dc="http://purl.org/dc/elements/1.1/"
   xmlns:cc="http://creativecommons.org/ns#"
   xmlns:rdf="http://www.w3.org/1999/02/22-rdf-syntax-ns#"
   xmlns:svg="http://www.w3.org/2000/svg"
   xmlns="http://www.w3.org/2000/svg"
   xmlns:sodipodi="http://sodipodi.sourceforge.net/DTD/sodipodi-0.dtd"
   xmlns:inkscape="http://www.inkscape.org/namespaces/inkscape"
   sodipodi:docname="drawing.svg"
   inkscape:version="0.91 r13725"
   version="1.1"
   id="svg4240"
   viewBox="0 0 981.96461 321.60015"
   height="90.762711mm"
   width="277.13223mm">
  <defs
     id="defs4242" />
  <sodipodi:namedview
     fit-margin-bottom="0"
     fit-margin-right="0"
     fit-margin-left="0"
     fit-margin-top="0"
     inkscape:window-maximized="1"
     inkscape:window-y="1"
     inkscape:window-x="0"
     inkscape:window-height="1021"
     inkscape:window-width="2048"
     showgrid="false"
     inkscape:current-layer="layer2"
     inkscape:document-units="px"
     inkscape:cy="13.914395"
     inkscape:cx="751.6295"
     inkscape:zoom="0.66468037"
     inkscape:pageshadow="2"
     inkscape:pageopacity="0.0"
     borderopacity="1.0"
     bordercolor="#666666"
     pagecolor="#ffffff"
     id="base" />
  <metadata
     id="metadata4245">
    <rdf:RDF>
      <cc:Work
         rdf:about="">
        <dc:format>image/svg+xml</dc:format>
        <dc:type
           rdf:resource="http://purl.org/dc/dcmitype/StillImage" />
        <dc:title></dc:title>
      </cc:Work>
    </rdf:RDF>
  </metadata>
  <g
     inkscape:label="Layer 1"
     inkscape:groupmode="layer"
     id="layer1"
     transform="translate(383.92494,-160.49328)" />
  <g
     inkscape:groupmode="layer"
     id="layer2"
     inkscape:label="Layer 2"
     transform="translate(383.92494,-160.49328)">
    <path
       style="fill:#000000"
       d="m 352.74397,478.24119 c 0.92103,-3.76903 11.87131,-30.48993 21.5083,-52.48465 9.86344,-22.51152 9.67726,-21.6278 6.92943,-32.89221 -3.42997,-14.06075 -3.22164,-36.95243 0.44688,-49.10642 13.24423,-43.87864 47.63362,-73.61698 122.30718,-105.76556 24.32504,-10.47245 37.67777,-17.18807 47.80968,-24.04538 17.86083,-12.08828 36.4402,-33.06424 42.38057,-47.84736 1.25285,-3.11781 2.66096,-5.64051 3.12912,-5.60598 1.46014,0.10767 0.73701,44.30167 -0.9768,59.69719 -10.61597,95.36545 -42.95689,157.39345 -96.20598,184.51751 -30.73114,15.65385 -79.17559,21.45357 -101.74118,12.18037 -3.19081,-1.31125 -6.5492,-2.38408 -7.46311,-2.38408 -3.43636,0 -15.75824,32.89925 -19.29523,51.51802 -1.09802,5.78003 -2.76237,13.70787 -3.00898,14.91667 -5.50064,-0.0422 -0.35371,-0.0119 -8.18026,-0.0119 l -8.29605,0 z"
       id="path4918"
       inkscape:connector-curvature="0"
       sodipodi:nodetypes="ssssssscssssscscs" />
    <g
       style="font-style:normal;font-weight:normal;font-size:150px;line-height:86.00000143%;font-family:sans-serif;letter-spacing:0px;word-spacing:0px;fill:#000000;fill-opacity:1;stroke:none;stroke-width:1px;stroke-linecap:butt;stroke-linejoin:miter;stroke-opacity:1"
       id="text4920"
       transform="translate(-2,0)">
      <path
         d="m -345.34994,319.70594 -36.575,-55.6875 21.725,0 23.925,38.775 24.2,-38.775 20.625,0 -36.575,55.6875 0,41.6625 -17.325,0 0,-41.6625 z"
         style="font-style:normal;font-variant:normal;font-weight:900;font-stretch:normal;font-size:137.5px;line-height:86.00000143%;font-family:Avenir;-inkscape-font-specification:'Avenir Heavy';letter-spacing:1.35000002px"
         id="path5638"
         inkscape:connector-curvature="0" />
      <path
         d="m -202.55678,354.21844 q -18.0125,9.625 -40.2875,9.625 -11.275,0 -20.7625,-3.575 -9.35,-3.7125 -16.225,-10.3125 -6.7375,-6.7375 -10.5875,-16.0875 -3.85,-9.35 -3.85,-20.7625 0,-11.6875 3.85,-21.175 3.85,-9.625 10.5875,-16.3625 6.875,-6.7375 16.225,-10.3125 9.4875,-3.7125 20.7625,-3.7125 11.1375,0 20.9,2.75 9.7625,2.6125 17.4625,9.4875 l -12.7875,12.925 q -4.675,-4.5375 -11.4125,-7.0125 -6.6,-2.475 -14.025,-2.475 -7.5625,0 -13.75,2.75 -6.05,2.6125 -10.45,7.425 -4.4,4.675 -6.875,11 -2.3375,6.325 -2.3375,13.6125 0,7.8375 2.3375,14.4375 2.475,6.6 6.875,11.4125 4.4,4.8125 10.45,7.5625 6.1875,2.75 13.75,2.75 6.6,0 12.375,-1.2375 5.9125,-1.2375 10.45,-3.85 l 0,-22.9625 -19.9375,0 0,-15.675 37.2625,0 0,49.775 z"
         style="font-style:normal;font-variant:normal;font-weight:900;font-stretch:normal;font-size:137.5px;line-height:86.00000143%;font-family:Avenir;-inkscape-font-specification:'Avenir Heavy';letter-spacing:1.35000002px"
         id="path5640"
         inkscape:connector-curvature="0" />
      <path
         d="m -102.05346,354.21844 q -18.0125,9.625 -40.2875,9.625 -11.275,0 -20.7625,-3.575 -9.35,-3.7125 -16.225,-10.3125 -6.7375,-6.7375 -10.5875,-16.0875 -3.85,-9.35 -3.85,-20.7625 0,-11.6875 3.85,-21.175 3.85,-9.625 10.5875,-16.3625 6.875,-6.7375 16.225,-10.3125 9.4875,-3.7125 20.7625,-3.7125 11.1375,0 20.9,2.75 9.7625,2.6125 17.4625,9.4875 l -12.7875,12.925 q -4.675,-4.5375 -11.4125,-7.0125 -6.6,-2.475 -14.025,-2.475 -7.5625,0 -13.75,2.75 -6.05,2.6125 -10.45,7.425 -4.4,4.675 -6.875,11 -2.3375,6.325 -2.3375,13.6125 0,7.8375 2.3375,14.4375 2.475,6.6 6.875,11.4125 4.4,4.8125 10.45,7.5625 6.1875,2.75 13.75,2.75 6.6,0 12.375,-1.2375 5.9125,-1.2375 10.45,-3.85 l 0,-22.9625 -19.9375,0 0,-15.675 37.2625,0 0,49.775 z"
         style="font-style:normal;font-variant:normal;font-weight:900;font-stretch:normal;font-size:137.5px;line-height:86.00000143%;font-family:Avenir;-inkscape-font-specification:'Avenir Heavy';letter-spacing:1.35000002px"
         id="path5642"
         inkscape:connector-curvature="0" />
      <path
         d="m -90.037646,264.01844 38.3625,0 q 9.625,0 18.5625,3.025 8.9375,2.8875 15.8125,8.9375 6.875,6.05 11,15.2625 4.125,9.075 4.125,21.45 0,12.5125 -4.8125,21.725 -4.675,9.075 -12.2375,15.125 -7.425,5.9125 -16.6375,8.9375 -9.075,2.8875 -17.875,2.8875 l -36.3,0 0,-97.35 z m 30.25,81.675 q 8.1125,0 15.2625,-1.7875 7.2875,-1.925 12.65,-5.775 5.3625,-3.9875 8.3875,-10.175 3.1625,-6.325 3.1625,-15.2625 0,-8.8 -2.75,-15.125 -2.75,-6.325 -7.7,-10.175 -4.8125,-3.9875 -11.55,-5.775 -6.6,-1.925 -14.575,-1.925 l -15.8125,0 0,66 12.925,0 z"
         style="font-style:normal;font-variant:normal;font-weight:900;font-stretch:normal;font-size:137.5px;line-height:86.00000143%;font-family:Avenir;-inkscape-font-specification:'Avenir Heavy';letter-spacing:1.35000002px"
         id="path5644"
         inkscape:connector-curvature="0" />
      <path
         d="m 7.511578,264.01844 33.825,0 q 7.0125,0 13.475,1.375 6.6,1.2375 11.687502,4.4 5.0875,3.1625 8.1125,8.525 3.025,5.3625 3.025,13.6125 0,10.5875 -5.9125,17.7375 -5.775002,7.15 -16.637502,8.6625 l 25.850002,43.0375 -20.900002,0 -22.55,-41.25 -12.65,0 0,41.25 -17.325,0 0,-97.35 z m 30.8,41.25 q 3.7125,0 7.425,-0.275 3.7125,-0.4125 6.7375,-1.65 3.1625,-1.375 5.0875,-3.9875 1.925,-2.75 1.925,-7.5625 0,-4.2625 -1.7875,-6.875 -1.7875,-2.6125 -4.675,-3.85 -2.8875,-1.375 -6.4625,-1.7875 -3.4375,-0.4125 -6.7375,-0.4125 l -14.9875,0 0,26.4 13.475,0 z"
         style="font-style:normal;font-variant:normal;font-weight:900;font-stretch:normal;font-size:137.5px;line-height:86.00000143%;font-family:Avenir;-inkscape-font-specification:'Avenir Heavy';letter-spacing:1.35000002px"
         id="path5646"
         inkscape:connector-curvature="0" />
      <path
         d="m 126.82369,264.01844 14.9875,0 41.9375,97.35 -19.8,0 -9.075,-22.275 -42.2125,0 -8.8,22.275 -19.3875,0 42.35,-97.35 z m 22,60.225 -14.9875,-39.6 -15.2625,39.6 30.25,0 z"
         style="font-style:normal;font-variant:normal;font-weight:900;font-stretch:normal;font-size:137.5px;line-height:86.00000143%;font-family:Avenir;-inkscape-font-specification:'Avenir Heavy';letter-spacing:1.35000002px"
         id="path5648"
         inkscape:connector-curvature="0" />
      <path
         d="m 239.7639,284.91844 q -2.75,-3.9875 -7.425,-5.775 -4.5375,-1.925 -9.625,-1.925 -3.025,0 -5.9125,0.6875 -2.75,0.6875 -5.0875,2.2 -2.2,1.5125 -3.575,3.9875 -1.375,2.3375 -1.375,5.6375 0,4.95 3.4375,7.5625 3.4375,2.6125 8.525,4.5375 5.0875,1.925 11.1375,3.7125 6.05,1.7875 11.1375,4.95 5.0875,3.1625 8.525,8.3875 3.4375,5.225 3.4375,13.8875 0,7.8375 -2.8875,13.75 -2.8875,5.775 -7.8375,9.625 -4.8125,3.85 -11.275,5.775 -6.4625,1.925 -13.6125,1.925 -9.075,0 -17.4625,-3.025 -8.3875,-3.025 -14.4375,-10.175 l 13.0625,-12.65 q 3.1625,4.8125 8.25,7.5625 5.225,2.6125 11,2.6125 3.025,0 6.05,-0.825 3.025,-0.825 5.5,-2.475 2.475,-1.65 3.9875,-4.125 1.5125,-2.6125 1.5125,-5.9125 0,-5.3625 -3.4375,-8.25 -3.4375,-2.8875 -8.525,-4.8125 -5.0875,-2.0625 -11.1375,-3.85 -6.05,-1.7875 -11.1375,-4.8125 -5.0875,-3.1625 -8.525,-8.25 -3.4375,-5.225 -3.4375,-13.8875 0,-7.5625 3.025,-13.0625 3.1625,-5.5 8.1125,-9.075 5.0875,-3.7125 11.55,-5.5 6.4625,-1.7875 13.2,-1.7875 7.7,0 14.85,2.3375 7.2875,2.3375 13.0625,7.7 l -12.65,13.3375 z"
         style="font-style:normal;font-variant:normal;font-weight:900;font-stretch:normal;font-size:137.5px;line-height:86.00000143%;font-family:Avenir;-inkscape-font-specification:'Avenir Heavy';letter-spacing:1.35000002px"
         id="path5650"
         inkscape:connector-curvature="0" />
      <path
         d="m 264.21257,264.01844 17.325,0 0,97.35 -17.325,0 0,-97.35 z"
         style="font-style:normal;font-variant:normal;font-weight:900;font-stretch:normal;font-size:137.5px;line-height:86.00000143%;font-family:Avenir;-inkscape-font-specification:'Avenir Heavy';letter-spacing:1.35000002px"
         id="path5652"
         inkscape:connector-curvature="0" />
      <path
         d="m 296.37837,264.01844 17.325,0 0,81.675 41.3875,0 0,15.675 -58.7125,0 0,-97.35 z"
         style="font-style:normal;font-variant:normal;font-weight:900;font-stretch:normal;font-size:137.5px;line-height:86.00000143%;font-family:Avenir;-inkscape-font-specification:'Avenir Heavy';letter-spacing:1.35000002px"
         id="path5654"
         inkscape:connector-curvature="0" />
      <path
         d="m -369.13744,382.26844 22.9625,0 47.1625,72.325 0.275,0 0,-72.325 17.325,0 0,97.35 -22,0 -48.125,-74.6625 -0.275,0 0,74.6625 -17.325,0 0,-97.35 z"
         style="font-style:normal;font-variant:normal;font-weight:900;font-stretch:normal;font-size:137.5px;line-height:86.00000143%;font-family:Avenir;-inkscape-font-specification:'Avenir Heavy';letter-spacing:1.35000002px"
         id="path5656"
         inkscape:connector-curvature="0" />
      <path
         d="m -270.48568,382.26844 64.4875,0 0,15.675 -47.1625,0 0,23.925 44.6875,0 0,15.675 -44.6875,0 0,26.4 49.6375,0 0,15.675 -66.9625,0 0,-97.35 z"
         style="font-style:normal;font-variant:normal;font-weight:900;font-stretch:normal;font-size:137.5px;line-height:86.00000143%;font-family:Avenir;-inkscape-font-specification:'Avenir Heavy';letter-spacing:1.35000002px"
         id="path5658"
         inkscape:connector-curvature="0" />
      <path
         d="m -165.14057,397.94344 -29.8375,0 0,-15.675 77,0 0,15.675 -29.8375,0 0,81.675 -17.325,0 0,-81.675 z"
         style="font-style:normal;font-variant:normal;font-weight:900;font-stretch:normal;font-size:137.5px;line-height:86.00000143%;font-family:Avenir;-inkscape-font-specification:'Avenir Heavy';letter-spacing:1.35000002px"
         id="path5660"
         inkscape:connector-curvature="0" />
      <path
         d="m -111.36694,382.26844 18.974997,0 18.2875,70.125 0.275,0 21.8625,-70.125 17.05,0 21.45,70.125 0.275,0 19.1125,-70.125 17.6,0 -28.3250004,97.35 -16.4999996,0 -22.55,-74.1125 -0.275,0 -22.55,74.1125 -15.95,0 -28.737497,-97.35 z"
         style="font-style:normal;font-variant:normal;font-weight:900;font-stretch:normal;font-size:137.5px;line-height:86.00000143%;font-family:Avenir;-inkscape-font-specification:'Avenir Heavy';letter-spacing:1.35000002px"
         id="path5662"
         inkscape:connector-curvature="0" />
      <path
         d="m 24.435016,431.35594 q 0,-11.6875 3.85,-21.175 3.85,-9.625 10.5875,-16.3625 6.875,-6.7375 16.225,-10.3125 9.4875,-3.7125 20.7625,-3.7125 11.412504,-0.1375 20.900004,3.4375 9.4875,3.4375 16.3625,10.175 6.875,6.7375 10.725,16.225 3.85,9.4875 3.85,21.175 0,11.4125 -3.85,20.7625 -3.85,9.35 -10.725,16.0875 -6.875,6.7375 -16.3625,10.5875 -9.4875,3.7125 -20.900004,3.85 -11.275,0 -20.7625,-3.575 -9.35,-3.7125 -16.225,-10.3125 -6.7375,-6.7375 -10.5875,-16.0875 -3.85,-9.35 -3.85,-20.7625 z m 18.15,-1.1 q 0,7.8375 2.3375,14.4375 2.475,6.6 6.875,11.4125 4.4,4.8125 10.45,7.5625 6.1875,2.75 13.75,2.75 7.5625,0 13.750004,-2.75 6.1875,-2.75 10.5875,-7.5625 4.4,-4.8125 6.7375,-11.4125 2.475,-6.6 2.475,-14.4375 0,-7.2875 -2.475,-13.6125 -2.3375,-6.325 -6.7375,-11 -4.4,-4.8125 -10.5875,-7.425 -6.187504,-2.75 -13.750004,-2.75 -7.5625,0 -13.75,2.75 -6.05,2.6125 -10.45,7.425 -4.4,4.675 -6.875,11 -2.3375,6.325 -2.3375,13.6125 z"
         style="font-style:normal;font-variant:normal;font-weight:900;font-stretch:normal;font-size:137.5px;line-height:86.00000143%;font-family:Avenir;-inkscape-font-specification:'Avenir Heavy';letter-spacing:1.35000002px"
         id="path5664"
         inkscape:connector-curvature="0" />
      <path
         d="m 137.68287,382.26844 33.825,0 q 7.0125,0 13.475,1.375 6.6,1.2375 11.6875,4.4 5.0875,3.1625 8.1125,8.525 3.025,5.3625 3.025,13.6125 0,10.5875 -5.9125,17.7375 -5.775,7.15 -16.6375,8.6625 l 25.85,43.0375 -20.9,0 -22.55,-41.25 -12.65,0 0,41.25 -17.325,0 0,-97.35 z m 30.8,41.25 q 3.7125,0 7.425,-0.275 3.7125,-0.4125 6.7375,-1.65 3.1625,-1.375 5.0875,-3.9875 1.925,-2.75 1.925,-7.5625 0,-4.2625 -1.7875,-6.875 -1.7875,-2.6125 -4.675,-3.85 -2.8875,-1.375 -6.4625,-1.7875 -3.4375,-0.4125 -6.7375,-0.4125 l -14.9875,0 0,26.4 13.475,0 z"
         style="font-style:normal;font-variant:normal;font-weight:900;font-stretch:normal;font-size:137.5px;line-height:86.00000143%;font-family:Avenir;-inkscape-font-specification:'Avenir Heavy';letter-spacing:1.35000002px"
         id="path5666"
         inkscape:connector-curvature="0" />
      <path
         d="m 221.50746,382.26844 17.325,0 0,41.25 0.825,0 40.2875,-41.25 23.375,0 -45.5125,44.9625 48.5375,52.3875 -24.3375,0 -42.2125,-47.85 -0.9625,0 0,47.85 -17.325,0 0,-97.35 z"
         style="font-style:normal;font-variant:normal;font-weight:900;font-stretch:normal;font-size:137.5px;line-height:86.00000143%;font-family:Avenir;-inkscape-font-specification:'Avenir Heavy';letter-spacing:1.35000002px"
         id="path5668"
         inkscape:connector-curvature="0" />
    </g>
  </g>
</svg>
