<?xml version="1.0" encoding="UTF-8" standalone="no"?>
<!-- Created with Inkscape (http://www.inkscape.org/) -->

<svg
   xmlns:dc="http://purl.org/dc/elements/1.1/"
   xmlns:cc="http://creativecommons.org/ns#"
   xmlns:rdf="http://www.w3.org/1999/02/22-rdf-syntax-ns#"
   xmlns:svg="http://www.w3.org/2000/svg"
   xmlns="http://www.w3.org/2000/svg"
   xmlns:sodipodi="http://sodipodi.sourceforge.net/DTD/sodipodi-0.dtd"
   xmlns:inkscape="http://www.inkscape.org/namespaces/inkscape"
   width="297mm"
   height="210mm"
   viewBox="0 0 1052.3622 744.09448"
   id="svg4211"
   version="1.1"
   inkscape:version="0.91 r13725"
   sodipodi:docname="ygg.svg">
  <defs
     id="defs4213" />
  <sodipodi:namedview
     id="base"
     pagecolor="#ffffff"
     bordercolor="#666666"
     borderopacity="1.0"
     inkscape:pageopacity="0.0"
     inkscape:pageshadow="2"
     inkscape:zoom="0.98994949"
     inkscape:cx="392.22274"
     inkscape:cy="328.07102"
     inkscape:document-units="px"
     inkscape:current-layer="layer1"
     showgrid="false"
     inkscape:window-width="2048"
     inkscape:window-height="1021"
     inkscape:window-x="0"
     inkscape:window-y="1"
     inkscape:window-maximized="1" />
  <metadata
     id="metadata4216">
    <rdf:RDF>
      <cc:Work
         rdf:about="">
        <dc:format>image/svg+xml</dc:format>
        <dc:type
           rdf:resource="http://purl.org/dc/dcmitype/StillImage" />
        <dc:title></dc:title>
      </cc:Work>
    </rdf:RDF>
  </metadata>
  <g
     inkscape:label="Layer 1"
     inkscape:groupmode="layer"
     id="layer1"
     transform="translate(0,-308.26772)">
    <path
       style="fill:#000000"
       d="m 460.61581,792.64187 c -14.51039,-2.42462 -27.13128,-11.23736 -33.27874,-23.23742 -3.95148,-7.71345 -4.96067,-12.56414 -4.93596,-23.72489 0.0248,-11.2213 0.69402,-14.57405 4.54005,-22.74702 3.58732,-7.62322 11.65609,-16.13956 18.69181,-19.72866 7.89041,-4.0251 14.86955,-5.38578 25.40579,-4.95323 15.13104,0.62119 23.26489,3.7971 31.38655,12.2551 5.63174,5.86495 8.75022,10.87189 11.35489,18.23111 1.70987,4.83105 1.84408,6.04861 1.8283,16.58727 -0.0159,10.60464 -0.1441,11.71613 -1.89682,16.44157 -3.01033,8.11602 -5.23779,11.62173 -11.29444,17.77594 -6.31389,6.41558 -12.48302,10.0018 -20.55728,11.95029 -5.54917,1.33914 -16.54862,1.93453 -21.24415,1.14994 z M 480.6751,775.5862 c 12.29766,-4.86097 20.28509,-20.5935 18.01743,-35.48827 -2.64127,-17.3488 -15.81964,-28.20218 -32.66899,-26.90539 -15.77349,1.21398 -26.97914,14.76946 -26.85542,32.48702 0.10478,15.00616 8.05637,26.51054 21.44769,31.03057 4.28957,1.44788 15.0829,0.84312 20.05929,-1.12393 z m 274.68711,14.34342 c 0.91347,-3.82147 15.29804,-38.46868 22.78388,-54.87799 10.56026,-23.14869 10.27203,-22.17894 8.35897,-28.12321 -4.0299,-12.52197 -5.42045,-32.34223 -3.19107,-45.48393 3.50062,-20.63583 14.69893,-41.29059 31.9938,-59.01124 13.26567,-13.5923 25.30915,-22.84077 43.92125,-33.72815 16.37924,-9.58124 26.67733,-14.45821 56.44698,-26.73208 33.01869,-13.61344 50.34318,-23.91511 65.83787,-39.14917 4.0338,-3.96593 9.48064,-9.8837 12.10414,-13.15062 5.2794,-6.57423 11.92937,-17.88903 13.09997,-22.28926 1.4072,-5.28977 1.2877,-5.11716 2.4597,-3.55422 0.9142,1.21925 1.0022,3.59794 0.618,16.70484 -0.8896,30.3472 -2.4281,47.59835 -6.3711,71.43987 -4.62157,27.9438 -9.09387,45.29624 -16.76372,65.04226 -11.58696,29.83063 -23.37107,49.53996 -40.32231,67.4405 -9.05144,9.55832 -15.088,14.7205 -24.86859,21.26655 -17.4525,11.68068 -33.86284,17.64223 -63.28625,22.99059 -7.21595,1.31167 -11.34215,1.58796 -24.04223,1.60996 -17.43104,0.0302 -23.08626,-0.81625 -33.0773,-4.95066 -3.24445,-1.34262 -6.29851,-2.44112 -6.78674,-2.44112 -2.09593,0 -12.67179,25.50392 -16.94755,40.8695 -2.24331,8.06168 -3.8331,15.78116 -5.23437,25.41673 l -0.38761,2.66568 -8.40649,0 -8.40648,0 0.46725,-1.95483 z m -699.979962,-44.58293 0,-45.87202 9.37504,0 c 5.15627,0 10.10096,0.33738 10.98819,0.74974 1.4941,0.6944 7.07765,9.11469 35.090962,52.91901 l 8.63724,13.50605 0.0106,-33.5874 0.0106,-33.5874 4.35547,0.006 c 2.39551,0.003 6.00185,0.2079 8.01408,0.45444 l 3.6586,0.44826 0,45.0396 0,45.03939 -10.27893,-0.01 -10.27892,-0.009 -16.698461,-26.46987 C 89.082569,749.41542 79.517938,734.30518 77.011998,730.39554 l -4.55627,-7.10844 -0.34844,33.7651 -0.34844,33.76511 -8.18829,0.20028 -8.1883,0.20026 0,-45.87202 z m 99.276572,44.93835 c -0.18313,-0.48871 -0.25169,-21.04099 -0.15234,-45.67175 l 0.18064,-44.7832 29.44302,-0.18542 29.44302,-0.18543 0,7.47158 0,7.47159 -21.27242,0 -21.27243,0 0.19192,11.19579 0.19192,11.1958 20.38363,0.18845 20.38363,0.18844 0,7.45314 0,7.45312 -20.5747,0 -20.5747,0 0.19107,11.90665 0.19107,11.90664 22.47426,0.18756 22.47426,0.18756 0,7.45401 0,7.45402 -30.68443,0 c -23.90537,0 -30.758,-0.1963 -31.01742,-0.88855 z m 94.98374,-37.31933 -0.18027,-38.20789 -13.41487,-0.19305 -13.41487,-0.19307 0,-7.44851 0,-7.44852 35.19226,0 35.19225,0 0,7.44852 0,7.44851 -13.41487,0.19307 -13.41487,0.19305 -0.18027,38.20789 -0.18027,38.20788 -8.00197,0 -8.00198,0 -0.18027,-38.20788 z m 72.08127,37.69588 c -0.88404,-0.16953 -1.90424,-1.00336 -2.2671,-1.85295 -0.6667,-1.56091 -20.82734,-71.39665 -23.72736,-82.19066 -1.33699,-4.97638 -1.42126,-5.93246 -0.57215,-6.49128 0.54769,-0.36043 4.43242,-0.57463 8.63276,-0.47597 l 7.63697,0.17936 7.06801,27.36751 c 3.88741,15.05213 7.61462,29.27985 8.28269,31.61717 l 1.21468,4.24967 1.02431,-2.47256 c 0.90915,-2.19456 5.50541,-16.82917 15.93481,-50.73682 l 3.25715,-10.58954 7.70237,0.44954 c 4.2363,0.24724 7.86043,0.61075 8.05361,0.80781 0.19319,0.19705 4.48469,14.19651 9.53668,31.1099 5.05198,16.9134 9.43796,30.75163 9.74661,30.75163 0.64622,0 2.77607,-7.39502 11.26022,-39.09644 3.34823,-12.51086 6.11733,-22.81021 6.15354,-22.88744 0.21143,-0.45094 13.06537,-1.04148 14.52662,-0.66738 l 1.76131,0.45092 -1.70909,6.57604 c -0.94001,3.61682 -6.65059,24.00949 -12.69018,45.31705 l -10.98109,38.74103 -7.75054,0.2004 -7.75054,0.2004 -0.72645,-2.33293 c -0.39954,-1.28312 -3.73896,-12.40916 -7.42092,-24.72454 -11.3312,-37.90036 -12.29002,-40.86362 -12.86695,-39.76561 -0.2961,0.56352 -4.85331,15.57913 -10.12713,33.36801 -5.27383,17.78888 -9.62473,32.37898 -9.66868,32.42245 -0.30567,0.30226 -12.24921,0.72166 -13.53416,0.47523 z m 209.24819,-0.37655 c -0.18314,-0.48871 -0.2517,-21.04099 -0.15234,-45.67175 l 0.18063,-44.7832 16.72503,0.0849 c 25.58904,0.12996 33.8911,1.86095 40.5043,8.44519 4.90715,4.88567 6.74651,9.89871 6.78131,18.48196 0.0208,5.1398 -0.28162,7.09638 -1.5384,9.95182 -2.67845,6.0855 -10.64663,13.15062 -14.83152,13.15062 -3.89352,0 -4.09462,-0.46278 11.63977,26.7868 3.99916,6.92594 7.2712,12.80535 7.2712,13.06535 0,0.84432 -5.77165,1.18862 -12.48139,0.74457 l -6.55794,-0.43401 -9.94203,-18.48196 -9.94203,-18.48195 -5.62585,-0.20646 -5.62585,-0.20645 0,19.22154 0,19.22154 -8.03595,0 c -5.78659,0 -8.12916,-0.24871 -8.36894,-0.88855 z m 32.71863,-52.45116 c 10.11979,-1.18257 13.65492,-3.90865 14.16929,-10.92656 0.36486,-4.97804 -1.35142,-8.08068 -5.70487,-10.31308 -2.99089,-1.53371 -4.49818,-1.75342 -14.06404,-2.04998 l -10.71412,-0.33218 0,12.17952 0,12.17952 5.05235,-0.005 c 2.77879,-0.003 7.84642,-0.33235 11.26139,-0.73141 z m 46.40512,7.38376 0,-45.95596 7.73712,0.41635 c 4.25541,0.229 7.91241,0.59517 8.12667,0.81372 0.21426,0.21855 0.53841,8.55593 0.72033,18.52753 0.18193,9.97157 0.5682,18.13014 0.85838,18.13014 0.29018,0 8.62146,-8.49934 18.51394,-18.88745 l 17.98634,-18.88745 9.90698,0.22779 c 5.44883,0.12528 10.1674,0.50599 10.48571,0.84601 0.3183,0.34003 -8.64574,9.81817 -19.9201,21.06253 l -20.49883,20.44431 16.68193,18.38933 c 28.70621,31.64432 27.07771,29.69317 25.22709,30.22512 -0.88453,0.25425 -5.84176,0.4907 -11.01606,0.52545 l -9.40783,0.0632 -17.94883,-20.856 c -9.87186,-11.47082 -18.5741,-21.43321 -19.33832,-22.13869 -1.38524,-1.27875 -1.38949,-1.21497 -1.38949,20.86367 l 0,22.14635 -8.36251,0 -8.36252,0 0,-45.95595 z M 162.85139,668.94076 c -15.17544,-4.19213 -27.17803,-15.80996 -31.61208,-30.59871 -1.36366,-4.54819 -1.5931,-6.84541 -1.56195,-15.63857 0.033,-9.32322 0.21888,-10.85016 1.9466,-15.99401 7.44189,-22.15633 27.03235,-33.93809 51.58989,-31.02627 11.90817,1.41196 20.82239,4.50235 26.13163,9.05933 l 2.24288,1.92509 -5.78676,5.93357 c -3.18271,3.26346 -6.03159,5.93358 -6.33083,5.93358 -0.29925,0 -1.82872,-0.94925 -3.39885,-2.10943 -3.8525,-2.84668 -9.54554,-4.92679 -15.64197,-5.71525 -10.30627,-1.33289 -18.84503,1.8134 -25.95134,9.56232 -5.54374,6.04508 -7.2311,10.45684 -7.644,19.98603 -0.48635,11.22431 1.64214,18.15887 7.62234,24.8333 6.10708,6.81607 13.52563,10.31058 21.88846,10.31058 5.29752,0 15.32712,-1.94884 18.48388,-3.59159 l 2.7537,-1.43298 -0.19321,-10.1052 -0.19321,-10.10521 -9.25777,-0.19852 -9.25776,-0.19851 0.19837,-7.26535 0.19838,-7.26535 16.90865,-0.19037 16.90867,-0.19038 -0.18364,23.62828 -0.18362,23.62827 -4.82936,2.04819 c -9.46835,4.01564 -17.16099,5.58061 -28.96914,5.89337 -9.16839,0.24285 -11.56913,0.074 -15.87796,-1.11621 z m 97.56268,0 c -15.17544,-4.19213 -27.17804,-15.80996 -31.61208,-30.59871 -1.36366,-4.54819 -1.5931,-6.84541 -1.56195,-15.63857 0.033,-9.32322 0.21888,-10.85016 1.94659,-15.99401 7.4419,-22.15633 27.03236,-33.93809 51.5899,-31.02627 11.90817,1.41196 20.82239,4.50235 26.13163,9.05933 l 2.24288,1.92509 -5.78675,5.93357 c -3.18272,3.26346 -6.0316,5.93358 -6.33084,5.93358 -0.29924,0 -1.82872,-0.94925 -3.39884,-2.10943 -3.8525,-2.84668 -9.54555,-4.92679 -15.64198,-5.71525 -10.30627,-1.33289 -18.84503,1.8134 -25.95134,9.56232 -5.54374,6.04508 -7.2311,10.45684 -7.644,19.98603 -0.48635,11.22431 1.64214,18.15887 7.62233,24.8333 6.10709,6.81607 13.52564,10.31058 21.88847,10.31058 5.29752,0 15.32712,-1.94884 18.48389,-3.59159 l 2.75369,-1.43298 -0.19321,-10.1052 -0.19321,-10.10521 -9.25776,-0.19852 -9.25777,-0.19851 0.19838,-7.26535 0.19837,-7.26535 16.90866,-0.19037 16.90866,-0.19038 -0.18363,23.62828 -0.18363,23.62827 -4.82936,2.04819 c -9.46835,4.01564 -17.16099,5.58061 -28.96914,5.89337 -9.16838,0.24285 -11.56913,0.074 -15.87796,-1.11621 z m 344.93639,-0.0502 c -5.95949,-1.59249 -10.40624,-3.94191 -14.76722,-7.8022 l -3.13595,-2.77589 6.05579,-6.2055 6.05578,-6.20548 3.22963,3.03664 c 5.93601,5.5813 13.11214,7.53013 20.09893,5.4583 6.85605,-2.03306 10.95077,-7.90933 9.42896,-13.53137 -1.06882,-3.94853 -5.25773,-6.94399 -15.46435,-11.05841 -16.83188,-6.78516 -21.39104,-9.893 -24.16623,-16.47342 -1.35781,-3.21959 -1.51793,-4.64088 -1.30064,-11.54528 0.22001,-6.99092 0.45583,-8.23508 2.10333,-11.09695 2.63557,-4.57826 8.25816,-9.67792 13.31571,-12.07728 8.6238,-4.09125 22.54163,-4.35526 32.09861,-0.60889 4.93095,1.93294 10.42351,6.07292 9.71731,7.32436 -0.29953,0.53077 -2.83813,3.4217 -5.64135,6.42427 l -5.09675,5.45925 -2.22045,-1.72158 c -5.7501,-4.45824 -11.62057,-6.03111 -17.70618,-4.74404 -3.23332,0.68383 -4.6104,1.44656 -6.98852,3.8707 -2.55054,2.5999 -2.96173,3.43623 -2.96173,6.02399 0,6.30335 3.05758,8.77967 17.61239,14.26423 11.0119,4.14954 13.45395,5.52074 17.72693,9.95359 4.80128,4.98093 5.42795,6.90682 5.42795,16.68123 0,7.87033 -0.14849,8.83856 -1.91976,12.5176 -2.17112,4.50958 -7.86167,10.37326 -12.317,12.69177 -6.98867,3.63682 -20.01126,4.59186 -29.18519,2.14038 z m -528.365052,-19.99894 0,-19.30586 -5.47441,-8.59478 c -3.01093,-4.72713 -10.23181,-16.02765 -16.04641,-25.11229 -5.81459,-9.08462 -10.75413,-17.00166 -10.97673,-17.5934 -0.34987,-0.93 0.95186,-1.07502 9.6003,-1.06953 l 10.00504,0.006 5.17885,8.70148 c 2.84837,4.78582 7.69235,12.66693 10.7644,17.5136 5.47211,8.63315 5.60753,8.7798 6.66804,7.22165 0.59538,-0.87476 5.497391,-8.67876 10.893351,-17.34224 l 9.810831,-15.75182 9.17904,-0.19834 c 6.01457,-0.12997 9.17904,0.0565 9.17904,0.54091 0,1.01269 -4.97628,9.05642 -19.6138,31.704 l -12.442501,19.25138 0,19.66736 0,19.66736 -8.362521,0 -8.36252,0 0,-19.30588 z m 251.741442,-26.36588 0.17934,-45.67175 14.98284,0.22344 c 35.15586,0.52426 42.37073,2.36679 53.59123,13.68606 7.59187,7.6587 11.05615,16.2824 11.68859,29.09658 1.0546,21.36815 -9.68398,37.71097 -29.59258,45.03635 -7.20894,2.65252 -13.75203,3.30108 -33.30372,3.30108 l -17.72504,0 0.17934,-45.67176 z m 40.59817,29.02749 c 13.83123,-3.82918 21.23251,-11.69727 22.5767,-24.00069 1.18425,-10.8394 -1.44827,-19.97649 -7.54548,-26.18932 -5.88127,-5.99277 -12.66686,-8.1144 -28.94263,-9.04938 -5.24414,-0.30124 -9.6689,-0.41093 -9.83282,-0.24373 -0.1639,0.16719 -0.29801,14.0458 -0.29801,30.84135 l 0,30.53736 9.93049,-0.369 c 5.86023,-0.21777 11.64428,-0.84348 14.11175,-1.52659 z m 55.40166,-28.93023 0,-45.57449 19.33832,0.36122 c 20.89486,0.3903 25.94526,1.07842 32.71624,4.45755 7.56482,3.7753 12.05806,12.08507 12.05806,22.30007 0,7.12727 -1.5079,11.37356 -5.70056,16.05295 -3.57278,3.98754 -9.01722,7.45906 -11.69818,7.45906 -2.62604,0 -2.61592,0.022 10.51626,22.8567 5.31849,9.248 9.66998,17.0141 9.66998,17.25804 0,0.24393 -4.31192,0.35452 -9.58205,0.24574 l -9.58204,-0.19777 -10.15528,-18.83738 -10.15528,-18.83737 -5.35022,-0.20761 -5.35022,-0.20761 0,19.2227 0,19.2227 -8.36251,0 -8.36252,0 0,-45.5745 z m 28.60685,-7.07902 c 10.80426,-0.87821 14.51516,-2.16166 16.66892,-5.76507 1.86737,-3.12427 1.91796,-9.32775 0.10086,-12.36733 -2.39915,-4.01319 -5.36836,-4.87897 -17.6758,-5.15404 l -10.9758,-0.2453 0,12.1468 c 0,11.2233 0.0954,12.14681 1.25446,12.14681 0.68994,0 5.47225,-0.34284 10.62736,-0.76187 z m 40.3839,52.29436 c 0,-0.72127 21.18656,-51.04159 35.0153,-83.16507 l 3.0601,-7.10844 7.20226,0 7.20228,0 18.70793,44.42778 c 10.28935,24.43527 18.7082,44.82762 18.70855,45.31633 4.6e-4,0.66493 -2.26041,0.88856 -8.98325,0.88856 l -8.98388,0 -3.66105,-9.41869 c -2.01357,-5.18028 -4.00753,-9.7725 -4.43099,-10.20493 -0.54149,-0.55294 -6.38811,-0.68514 -19.70416,-0.44553 l -18.93422,0.34069 -3.62792,9.86423 -3.62792,9.86423 -8.97151,0 c -4.93434,0 -8.97152,-0.16162 -8.97152,-0.35916 z m 57.015,-34.81468 c 0.48941,-0.49922 -0.25976,-2.7878 -6.69431,-20.44974 -2.52822,-6.93962 -4.86929,-12.61749 -5.20239,-12.61749 -0.3331,0 -1.48752,1.99925 -2.56539,4.44278 -2.40754,5.45788 -9.526,24.34962 -10.16253,26.97042 -0.44958,1.85109 -0.35516,1.92349 2.9108,2.23169 4.48949,0.42367 21.16713,-0.02 21.71382,-0.57766 z m 115.11344,-10.3202 0,-45.49405 8.01408,0 8.01408,0 0,45.49405 0,45.49404 -8.01408,0 -8.01408,0 0,-45.49404 z m 34.84382,0 0,-45.49405 7.90152,0 7.90154,0 0.46098,22.50753 c 0.25354,12.37913 0.46099,29.49271 0.46099,38.03017 l 0,15.52266 18.81566,0 18.81566,0 0,7.46386 0,7.46387 -27.17818,0 -27.17817,0 0,-45.49404 z"
       id="path4770"
       inkscape:connector-curvature="0" />
  </g>
</svg>
