<svg xmlns="http://www.w3.org/2000/svg" viewBox="0 0 658 658"><defs><style>.cls-1,.cls-3,.cls-4,.cls-5,.cls-6,.cls-7{stroke:#fff;stroke-miterlimit:10;}.cls-1,.cls-7{stroke-width:2px;}.cls-2{fill:#fff;}.cls-3,.cls-4,.cls-5,.cls-6,.cls-7{fill:none;}.cls-3{stroke-width:13px;}.cls-4{stroke-width:4px;}.cls-5{stroke-width:7px;}</style></defs><title>YggdrasilLogoTree</title><g id="circle"><circle class="cls-1" cx="329" cy="329" r="328"/></g><g id="name"><path d="M750.09,198.81h9.62a1,1,0,0,1,.72.3.89.89,0,0,1,.3.62,1.39,1.39,0,0,1-.14.6L749,219.53v10.26a1.26,1.26,0,0,1-1.25,1.25h-9.8a1.26,1.26,0,0,1-1.25-1.25V219.53l-11.55-19.2a1.39,1.39,0,0,1-.14-.6.89.89,0,0,1,.3-.62,1,1,0,0,1,.71-.3h9.72a2,2,0,0,1,1.88,1.06l5.21,9.11,5.34-9A2.14,2.14,0,0,1,750.09,198.81Z" transform="translate(-179 -192)"/><path d="M778.63,213H792a1.26,1.26,0,0,1,1.24,1.25v4.87c0,4.67-1.59,6.32-4.77,8.58s-7.37,3.38-12.59,3.38-9.41-1.1-12.59-3.3-4.77-5.6-4.77-10.21v-5.3a13.27,13.27,0,0,1,1.36-6.1,11.12,11.12,0,0,1,3.8-4.27q4.79-3.14,12.2-3.14a26.39,26.39,0,0,1,6.75.82,15.27,15.27,0,0,1,8,4.67q2.26,2.48,2.26,4.37a.92.92,0,0,1-.3.69,1,1,0,0,1-.71.29H781.44a1.84,1.84,0,0,1-1.33-.41,5.2,5.2,0,0,0-3.89-1.45,7,7,0,0,0-3.87.91,2.73,2.73,0,0,0-1.41,2.35v7.4a3.17,3.17,0,0,0,1.39,2.73,6.66,6.66,0,0,0,3.89,1,8.5,8.5,0,0,0,3.33-.55l1.94-1h-2.86a1.17,1.17,0,0,1-.87-.37,1.19,1.19,0,0,1-.37-.87v-5.11a1.19,1.19,0,0,1,.37-.88A1.17,1.17,0,0,1,778.63,213Z" transform="translate(-179 -192)"/><path d="M746.89,233.77h8.56a1.26,1.26,0,0,1,1.24,1.25v29.74a1.26,1.26,0,0,1-1.24,1.24H748a2.21,2.21,0,0,1-1.84-1l-10-12.8v12.53a1.16,1.16,0,0,1-.37.87,1.17,1.17,0,0,1-.87.37h-8.57a1.26,1.26,0,0,1-1.24-1.24V235a1.26,1.26,0,0,1,1.24-1.25h7.46a2.16,2.16,0,0,1,1.8.92l10,13.86V235a1.26,1.26,0,0,1,1.25-1.25Z" transform="translate(-179 -192)"/><path d="M773.15,257h18.37a1.21,1.21,0,0,1,.87.37,1.19,1.19,0,0,1,.37.88v6.49a1.16,1.16,0,0,1-.37.87,1.17,1.17,0,0,1-.87.37h-29.1a1.26,1.26,0,0,1-1.24-1.24V235a1.26,1.26,0,0,1,1.24-1.25h28.64a1.21,1.21,0,0,1,.87.37,1.19,1.19,0,0,1,.37.88v6.49a1.16,1.16,0,0,1-.37.87,1.17,1.17,0,0,1-.87.37H773.15v2.9h15.38a1.19,1.19,0,0,1,.87.37,1.23,1.23,0,0,1,.37.87v6a1.26,1.26,0,0,1-1.24,1.24H773.15Z" transform="translate(-179 -192)"/><path d="M796.88,233.77h31.77a1.26,1.26,0,0,1,1.24,1.25v7.41a1.26,1.26,0,0,1-1.24,1.24h-9.9v21.09a1.26,1.26,0,0,1-1.24,1.24H808a1.17,1.17,0,0,1-.87-.37,1.16,1.16,0,0,1-.37-.87V243.67h-9.9a1.26,1.26,0,0,1-1.24-1.24V235a1.26,1.26,0,0,1,1.24-1.25Z" transform="translate(-179 -192)"/><path d="M815.41,213h13.35a1.17,1.17,0,0,1,.87.37,1.19,1.19,0,0,1,.37.88v4.87c0,4.67-1.59,6.32-4.76,8.58s-7.38,3.38-12.6,3.38-9.41-1.1-12.59-3.3-4.76-5.6-4.76-10.21v-5.3a13.14,13.14,0,0,1,1.36-6.1,11.09,11.09,0,0,1,3.79-4.27q4.8-3.14,12.2-3.14a26.34,26.34,0,0,1,6.75.82,16.35,16.35,0,0,1,4.88,2,16.66,16.66,0,0,1,3.11,2.63q2.25,2.48,2.25,4.37a.92.92,0,0,1-.3.69,1,1,0,0,1-.71.29H818.21a1.86,1.86,0,0,1-1.33-.41,5.2,5.2,0,0,0-3.89-1.45,7.06,7.06,0,0,0-3.87.91,2.74,2.74,0,0,0-1.4,2.35v7.4a3.16,3.16,0,0,0,1.38,2.73,6.68,6.68,0,0,0,3.89,1,8.59,8.59,0,0,0,3.34-.55l1.93-1h-2.85a1.19,1.19,0,0,1-.88-.37,1.23,1.23,0,0,1-.37-.87v-5.11a1.23,1.23,0,0,1,.37-.88A1.19,1.19,0,0,1,815.41,213Z" transform="translate(-179 -192)"/></g><g id="nodes"><circle class="cls-2" cx="204.5" cy="406.5" r="10.5"/><circle class="cls-2" cx="330.5" cy="379.5" r="13.5"/><circle class="cls-2" cx="456.5" cy="406.5" r="10.5"/><circle class="cls-2" cx="279.5" cy="480.5" r="10.5"/><circle class="cls-2" cx="383.5" cy="480.5" r="10.5"/><circle class="cls-2" cx="330.5" cy="279.5" r="13.5"/><circle class="cls-2" cx="279.5" cy="178.5" r="10.5"/><circle class="cls-2" cx="383.5" cy="178.5" r="10.5"/><circle class="cls-2" cx="204.5" cy="306.5" r="10.5"/><circle class="cls-2" cx="456.5" cy="306.5" r="10.5"/><circle class="cls-2" cx="226.5" cy="225.5" r="10.5"/><circle class="cls-2" cx="434.5" cy="225.5" r="10.5"/><circle class="cls-2" cx="330.5" cy="459.5" r="10.5"/><circle class="cls-2" cx="279.5" cy="418.5" r="10.5"/><circle class="cls-2" cx="381.5" cy="418.5" r="10.5"/><circle class="cls-2" cx="136.5" cy="423.5" r="7.5"/><circle class="cls-2" cx="71.5" cy="438.5" r="7.5"/><circle class="cls-2" cx="186.5" cy="460.5" r="5.5"/><circle class="cls-2" cx="261.5" cy="534.5" r="7.5"/><circle class="cls-2" cx="237.5" cy="486.5" r="7.5"/><circle class="cls-2" cx="305.5" cy="513.5" r="7.5"/><circle class="cls-2" cx="222.5" cy="522.5" r="7.5"/><circle class="cls-2" cx="104.5" cy="496.5" r="7.5"/><circle class="cls-2" cx="148.5" cy="467.5" r="7.5"/><circle class="cls-2" cx="215.5" cy="439.5" r="7.5"/><circle class="cls-2" cx="229.5" cy="559.5" r="5.5"/><circle class="cls-2" cx="163.5" cy="536.5" r="5.5"/><circle class="cls-2" cx="110.5" cy="458.5" r="7.5"/><circle class="cls-2" cx="174.5" cy="431.5" r="7.5"/><circle class="cls-2" cx="172.5" cy="494.5" r="7.5"/><circle class="cls-2" cx="213.5" cy="473.5" r="7.5"/><circle class="cls-2" cx="193.5" cy="510.5" r="7.5"/><circle class="cls-2" cx="253.5" cy="459.5" r="7.5"/><circle class="cls-2" cx="226.5" cy="604.5" r="5.5"/><circle class="cls-2" cx="284.5" cy="629.5" r="5.5"/><circle class="cls-2" cx="271.5" cy="572.5" r="7.5"/><circle class="cls-2" cx="279.5" cy="508.5" r="7.5"/><circle class="cls-2" cx="307.5" cy="479.5" r="5.5"/><circle class="cls-2" cx="318.5" cy="608.5" r="4.5"/><circle class="cls-2" cx="169.5" cy="585.5" r="6.5"/><circle class="cls-2" cx="310.5" cy="563.5" r="4.5"/><circle class="cls-2" cx="524.5" cy="423.5" r="7.5"/><circle class="cls-2" cx="589.5" cy="438.5" r="7.5"/><circle class="cls-2" cx="474.5" cy="460.5" r="7.5"/><circle class="cls-2" cx="392.5" cy="509.5" r="7.5"/><circle class="cls-2" cx="421.5" cy="495.5" r="7.5"/><circle class="cls-2" cx="342.5" cy="507.5" r="5.5"/><circle class="cls-2" cx="427.5" cy="532.5" r="7.5"/><circle class="cls-2" cx="556.5" cy="496.5" r="7.5"/><circle class="cls-2" cx="512.5" cy="467.5" r="7.5"/><circle class="cls-2" cx="445.5" cy="439.5" r="7.5"/><circle class="cls-2" cx="447.5" cy="576.5" r="7.5"/><circle class="cls-2" cx="496.5" cy="537.5" r="7.5"/><circle class="cls-2" cx="550.5" cy="458.5" r="7.5"/><circle class="cls-2" cx="486.5" cy="431.5" r="7.5"/><circle class="cls-2" cx="488.5" cy="494.5" r="5.5"/><circle class="cls-2" cx="447.5" cy="473.5" r="7.5"/><circle class="cls-2" cx="467.5" cy="510.5" r="7.5"/><circle class="cls-2" cx="407.5" cy="459.5" r="5.5"/><circle class="cls-2" cx="425.5" cy="614.5" r="7.5"/><circle class="cls-2" cx="370.5" cy="586.5" r="6.5"/><circle class="cls-2" cx="386.5" cy="560.5" r="7.5"/><circle class="cls-2" cx="366.5" cy="527.5" r="7.5"/><circle class="cls-2" cx="353.5" cy="479.5" r="7.5"/><circle class="cls-2" cx="337.5" cy="538.5" r="7.5"/><circle class="cls-2" cx="491.5" cy="585.5" r="6.5"/><circle class="cls-2" cx="352.5" cy="628.5" r="6.5"/><circle class="cls-2" cx="126.5" cy="563.5" r="5.5"/><circle class="cls-2" cx="528.5" cy="518.5" r="7.5"/><circle class="cls-2" cx="529.5" cy="567.5" r="5.5"/><circle class="cls-2" cx="129.5" cy="523.5" r="7.5"/><circle class="cls-2" cx="233.5" cy="416.5" r="7.5"/><circle class="cls-2" cx="430.5" cy="417.5" r="7.5"/><circle class="cls-2" cx="62.5" cy="486.5" r="5.5"/><circle class="cls-2" cx="598.5" cy="486.5" r="6.5"/><circle class="cls-2" cx="283.5" cy="235.5" r="7.5"/><circle class="cls-2" cx="252.5" cy="275.5" r="7.5"/><circle class="cls-2" cx="95.5" cy="311.5" r="7.5"/><circle class="cls-2" cx="335.5" cy="119.5" r="7.5"/><circle class="cls-2" cx="261.5" cy="100.5" r="7.5"/><circle class="cls-2" cx="165.5" cy="277.5" r="7.5"/><circle class="cls-2" cx="314.5" cy="81.5" r="7.5"/><circle class="cls-2" cx="324.5" cy="162.5" r="7.5"/><circle class="cls-2" cx="305.5" cy="146.5" r="7.5"/><circle class="cls-2" cx="255.5" cy="144.5" r="7.5"/><circle class="cls-2" cx="248.5" cy="203.5" r="7.5"/><circle class="cls-2" cx="202.5" cy="192.5" r="7.5"/><circle class="cls-2" cx="186.5" cy="229.5" r="7.5"/><circle class="cls-2" cx="203.5" cy="265.5" r="7.5"/><circle class="cls-2" cx="218.5" cy="155.5" r="7.5"/><circle class="cls-2" cx="143.5" cy="238.5" r="7.5"/><circle class="cls-2" cx="121.5" cy="285.5" r="7.5"/><circle class="cls-2" cx="77.5" cy="256.5" r="7.5"/><circle class="cls-2" cx="101.5" cy="187.5" r="7.5"/><circle class="cls-2" cx="154.5" cy="200.5" r="7.5"/><circle class="cls-2" cx="92.5" cy="223.5" r="7.5"/><circle class="cls-2" cx="148.5" cy="310.5" r="7.5"/><circle class="cls-2" cx="171.5" cy="168.5" r="7.5"/><circle class="cls-2" cx="131.5" cy="155.5" r="7.5"/><circle class="cls-2" cx="231.5" cy="115.5" r="7.5"/><circle class="cls-2" cx="238.5" cy="67.5" r="7.5"/><circle class="cls-2" cx="192.5" cy="129.5" r="7.5"/><circle class="cls-2" cx="201.5" cy="85.5" r="7.5"/><circle class="cls-2" cx="276.5" cy="54.5" r="7.5"/><circle class="cls-2" cx="287.5" cy="97.5" r="7.5"/><circle class="cls-2" cx="151.5" cy="119.5" r="7.5"/><circle class="cls-2" cx="381.5" cy="218.5" r="7.5"/><circle class="cls-2" cx="418.5" cy="275.5" r="7.5"/><circle class="cls-2" cx="566.5" cy="311.5" r="7.5"/><circle class="cls-2" cx="333.5" cy="42.5" r="7.5"/><circle class="cls-2" cx="400.5" cy="100.5" r="7.5"/><circle class="cls-2" cx="496.5" cy="277.5" r="7.5"/><circle class="cls-2" cx="367.5" cy="85.5" r="7.5"/><circle class="cls-2" cx="349.5" cy="183.5" r="7.5"/><circle class="cls-2" cx="356.5" cy="146.5" r="7.5"/><circle class="cls-2" cx="406.5" cy="144.5" r="7.5"/><circle class="cls-2" cx="419.5" cy="183.5" r="7.5"/><circle class="cls-2" cx="459.5" cy="192.5" r="7.5"/><circle class="cls-2" cx="475.5" cy="229.5" r="7.5"/><circle class="cls-2" cx="458.5" cy="265.5" r="7.5"/><circle class="cls-2" cx="443.5" cy="155.5" r="7.5"/><circle class="cls-2" cx="518.5" cy="238.5" r="7.5"/><circle class="cls-2" cx="540.5" cy="285.5" r="7.5"/><circle class="cls-2" cx="584.5" cy="256.5" r="7.5"/><circle class="cls-2" cx="560.5" cy="187.5" r="7.5"/><circle class="cls-2" cx="507.5" cy="200.5" r="7.5"/><circle class="cls-2" cx="569.5" cy="221.5" r="7.5"/><circle class="cls-2" cx="512.5" cy="310.5" r="7.5"/><circle class="cls-2" cx="490.5" cy="168.5" r="7.5"/><circle class="cls-2" cx="530.5" cy="155.5" r="7.5"/><circle class="cls-2" cx="430.5" cy="115.5" r="7.5"/><circle class="cls-2" cx="431.5" cy="69.5" r="7.5"/><circle class="cls-2" cx="469.5" cy="129.5" r="7.5"/><circle class="cls-2" cx="468.5" cy="92.5" r="7.5"/><circle class="cls-2" cx="385.5" cy="55.5" r="7.5"/><circle class="cls-2" cx="377.5" cy="119.5" r="7.5"/><circle class="cls-2" cx="510.5" cy="119.5" r="7.5"/><circle class="cls-2" cx="343.5" cy="66.5" r="7.5"/><circle class="cls-2" cx="322.5" cy="209.5" r="7.5"/></g><g id="tree"><path class="cls-1" d="M447,710" transform="translate(-179 -192)"/><path class="cls-1" d="M509,572" transform="translate(-179 -192)"/><path class="cls-1" d="M572,710" transform="translate(-179 -192)"/><path class="cls-1" d="M510,572" transform="translate(-179 -192)"/><line class="cls-3" x1="330.5" y1="280" x2="330.5" y2="379"/><line class="cls-4" x1="330.5" y1="279.5" x2="279" y2="179"/><line class="cls-4" x1="330.5" y1="279.5" x2="383.5" y2="178.5"/><line class="cls-4" x1="205" y1="406.5" x2="330.5" y2="379.5"/><line class="cls-4" x1="279" y1="480.5" x2="330.5" y2="380"/><line class="cls-4" x1="383.5" y1="481" x2="330.5" y2="380"/><line class="cls-4" x1="457" y1="406.5" x2="330.5" y2="380"/><line class="cls-4" x1="205" y1="306.5" x2="330.5" y2="279.5"/><line class="cls-4" x1="457" y1="306.5" x2="330.5" y2="280"/><line class="cls-4" x1="434" y1="226" x2="320" y2="286"/><line class="cls-4" x1="341" y1="286" x2="227" y2="226"/><line class="cls-4" x1="280" y1="418" x2="322.5" y2="386.5"/><line class="cls-5" x1="330.5" y1="458" x2="330.5" y2="380"/><line class="cls-6" x1="457" y1="407" x2="456" y2="312"/><line class="cls-7" x1="524" y1="423" x2="457" y2="407"/><line class="cls-7" x1="458" y1="408" x2="486" y2="431"/><line class="cls-4" x1="339.5" y1="387.5" x2="381" y2="418"/><polyline class="cls-7" points="474 460 445 440 382 419"/><path class="cls-7" d="M590.5,623.5" transform="translate(-179 -192)"/><path class="cls-7" d="M667,686" transform="translate(-179 -192)"/><line class="cls-7" x1="408" y1="461" x2="382" y2="419"/><polyline class="cls-7" points="468 511 447 473 382 419"/><line class="cls-7" x1="513" y1="468" x2="487" y2="432"/><line class="cls-7" x1="422" y1="495" x2="389" y2="481"/><line class="cls-7" x1="491" y1="585" x2="496" y2="537"/><polyline class="cls-7" points="448 577 428 533 422 495"/><line class="cls-7" x1="353" y1="479" x2="332" y2="460"/><line class="cls-7" x1="308" y1="479" x2="327" y2="462"/><polyline class="cls-7" points="330 461 305.57 513.53 311 564"/><line class="cls-7" x1="386" y1="560" x2="371" y2="585"/><line class="cls-7" x1="392" y1="510" x2="386.83" y2="560.24"/><line class="cls-7" x1="385" y1="483" x2="392" y2="510"/><polyline class="cls-7" points="202 407 137 423 112 457"/><line class="cls-7" x1="72" y1="438" x2="134" y2="424"/><line class="cls-7" x1="105" y1="495" x2="110" y2="460"/><line class="cls-7" x1="175" y1="431" x2="202" y2="409"/><polyline class="cls-7" points="237 486 223 523 170 586"/><line class="cls-7" x1="279" y1="419" x2="254" y2="460"/><line class="cls-7" x1="192" y1="510" x2="213" y2="474"/><line class="cls-7" x1="367" y1="526" x2="383" y2="482"/><line class="cls-7" x1="353" y1="628" x2="337" y2="538"/><path class="cls-7" d="M481,820" transform="translate(-179 -192)"/><path class="cls-7" d="M469,778" transform="translate(-179 -192)"/><path class="cls-7" d="M464,745" transform="translate(-179 -192)"/><polyline class="cls-7" points="279 484 280 508 262 534 272 573"/><polyline class="cls-7" points="222 521 229.43 559.32 226.43 606.32"/><polyline class="cls-7" points="175 431 149 467 130 522"/><path class="cls-7" d="M304.44,755.76" transform="translate(-179 -192)"/><polyline class="cls-7" points="187 460 215 440 279 419 213 474 172 495 163 537 127 563"/><line class="cls-7" x1="513" y1="469" x2="528" y2="518"/><polyline class="cls-7" points="530 567 496 537 488 494 447.5 473.9"/><line class="cls-7" x1="71" y1="440" x2="63" y2="485"/><line class="cls-7" x1="26" y1="453" x2="71" y2="440"/><line class="cls-7" x1="425" y1="615" x2="387" y2="561"/><line class="cls-7" x1="589.76" y1="438.67" x2="632.76" y2="452.67"/><polyline class="cls-7" points="598 485 589 438 525 424 551 458 556 496"/><line class="cls-7" x1="227" y1="228" x2="253" y2="276"/><polyline class="cls-7" points="165 277 144 239 93 224"/><line class="cls-7" x1="226" y1="228" x2="203" y2="266"/><polyline class="cls-7" points="223 226 186 230 155 201"/><line class="cls-7" x1="202" y1="193" x2="226" y2="224"/><line class="cls-7" x1="248" y1="204" x2="276" y2="179"/><line class="cls-7" x1="121" y1="286" x2="78" y2="257"/><line class="cls-7" x1="102" y1="188" x2="155" y2="201"/><polyline class="cls-7" points="203 193 172 169 132 156"/><path class="cls-7" d="M506,470" transform="translate(-179 -192)"/><polyline class="cls-7" points="203 305 148 310 95 311"/><line class="cls-7" x1="148" y1="310" x2="120.65" y2="285"/><line class="cls-7" x1="304" y1="147" x2="281" y2="177"/><line class="cls-7" x1="280" y1="175" x2="287" y2="100"/><polyline class="cls-7" points="151 119 192 129 218 155 278 177 255 144 231 115"/><line class="cls-7" x1="193" y1="127" x2="201" y2="85"/><line class="cls-7" x1="322.37" y1="207.57" x2="349" y2="183"/><polyline class="cls-7" points="306.04 146.71 314 82 333 43"/><line class="cls-7" x1="314.81" y1="81.5" x2="277" y2="55"/><path class="cls-7" d="M510,405" transform="translate(-179 -192)"/><line class="cls-7" x1="455" y1="308" x2="566" y2="311"/><polyline class="cls-7" points="512 309 540 285 586 256"/><line class="cls-7" x1="458" y1="265" x2="436" y2="229"/><polyline class="cls-7" points="569 223 518 238 496.5 276.11"/><path class="cls-7" d="M513,470" transform="translate(-179 -192)"/><path class="cls-7" d="M597,467" transform="translate(-179 -192)"/><line class="cls-7" x1="433.46" y1="228" x2="419" y2="273"/><polyline class="cls-7" points="560 188 507 201 475 230 436 226"/><polyline class="cls-7" points="382 219 435 224 460 191 490 169 532 155"/><polyline class="cls-7" points="510 120 469 129 443 155 385.5 178.5 419 184"/><line class="cls-7" x1="468" y1="93" x2="469" y2="129"/><polyline class="cls-7" points="431 70 402 100 378 120 384 178"/><polyline class="cls-7" points="385 57 367 86 356 146 384 178 406 145 430 116"/><line class="cls-7" x1="344" y1="67" x2="368" y2="86"/><line class="cls-7" x1="349" y1="183" x2="384" y2="178"/><line class="cls-7" x1="324" y1="162" x2="280" y2="177"/><line class="cls-7" x1="283" y1="235" x2="230" y2="224"/><polyline class="cls-7" points="319 609 337 538 343 508 331 462"/><line class="cls-6" x1="455.84" y1="306.5" x2="496" y2="278"/><line class="cls-7" x1="166" y1="279" x2="204" y2="305"/><line class="cls-7" x1="324" y1="162" x2="335" y2="119"/><line class="cls-7" x1="233" y1="416" x2="280" y2="419"/><line class="cls-7" x1="430" y1="417" x2="382" y2="419"/><line class="cls-7" x1="237" y1="487" x2="277" y2="481"/><line class="cls-7" x1="271" y1="572" x2="285" y2="630"/><polyline class="cls-7" points="255 144 262 101 238 68"/><line class="cls-6" x1="381.5" y1="413.5" x2="381.5" y2="226"/><line class="cls-6" x1="204.5" y1="404.5" x2="204.5" y2="306.5"/><line class="cls-6" x1="253.5" y1="459" x2="253.5" y2="276"/></g></svg>